<?xml version="1.0" encoding="UTF-8" standalone="no"?>
<svg
   xmlns:dc="http://purl.org/dc/elements/1.1/"
   xmlns:cc="http://creativecommons.org/ns#"
   xmlns:rdf="http://www.w3.org/1999/02/22-rdf-syntax-ns#"
   xmlns:svg="http://www.w3.org/2000/svg"
   xmlns="http://www.w3.org/2000/svg"
   xmlns:sodipodi="http://sodipodi.sourceforge.net/DTD/sodipodi-0.dtd"
   xmlns:inkscape="http://www.inkscape.org/namespaces/inkscape"
   viewBox="0 0 26.000189 36.687245"
   width="26.000189"
   height="36.687244"
   version="1.1"
   id="svg4"
   sodipodi:docname="not-bookmarked.svg"
   style="fill:#000000"
   inkscape:version="0.92.5 (2060ec1f9f, 2020-04-08)">
  <metadata
     id="metadata10">
    <rdf:RDF>
      <cc:Work
         rdf:about="">
        <dc:format>image/svg+xml</dc:format>
        <dc:type
           rdf:resource="http://purl.org/dc/dcmitype/StillImage" />
      </cc:Work>
    </rdf:RDF>
  </metadata>
  <defs
     id="defs8" />
  <sodipodi:namedview
     pagecolor="#ffffff"
     bordercolor="#666666"
     borderopacity="1"
     objecttolerance="10"
     gridtolerance="10"
     guidetolerance="10"
     inkscape:pageopacity="0"
     inkscape:pageshadow="2"
     inkscape:window-width="3072"
     inkscape:window-height="1566"
     id="namedview6"
     showgrid="false"
     inkscape:zoom="4.72"
     inkscape:cx="-95.262581"
     inkscape:cy="13.687246"
     inkscape:window-x="0"
     inkscape:window-y="88"
     inkscape:window-maximized="1"
     inkscape:current-layer="svg4" />
  <path
     d="m 0.81263049,0 c -0.476562,0.07164053 -0.820312,0.40803857 -0.81249999645,0.79738797 V 35.882459 C -0.00376951,36.16902 0.18763049,36.433778 0.49622449,36.577059 c 0.308594,0.146395 0.69140601,0.146395 1.00390601,0.0031 l 11.4999995,-5.35745 11.5,5.35745 c 0.3125,0.143282 0.695313,0.143282 1.003906,-0.0031 0.308594,-0.143287 0.5,-0.408044 0.496094,-0.694605 V 0.79738797 C 26.00013,0.35820182 25.550911,0 25.00013,0 H 1.0001305 c -0.03125,0 -0.0625,0 -0.09375,0 -0.03125,0 -0.0625,0 -0.09375,0 z M 2.0001305,1.594776 H 24.00013 v 32.892253 l -10.5,-4.884001 c -0.308594,-0.14328 -0.691406,-0.14328 -1,0 L 2.0001305,34.487029 Z"
     id="path2"
     inkscape:connector-curvature="0"
     style="stroke-width:0.89296579" />
</svg>
