<?xml version="1.0" encoding="UTF-8" standalone="no"?>
<svg
   xmlns:dc="http://purl.org/dc/elements/1.1/"
   xmlns:cc="http://creativecommons.org/ns#"
   xmlns:rdf="http://www.w3.org/1999/02/22-rdf-syntax-ns#"
   xmlns:svg="http://www.w3.org/2000/svg"
   xmlns="http://www.w3.org/2000/svg"
   xmlns:sodipodi="http://sodipodi.sourceforge.net/DTD/sodipodi-0.dtd"
   xmlns:inkscape="http://www.inkscape.org/namespaces/inkscape"
   viewBox="0 0 16 16"
   version="1.1"
   id="svg870"
   sodipodi:docname="sort-ascending.svg"
   inkscape:version="0.92.5 (2060ec1f9f, 2020-04-08)">
  <metadata
     id="metadata876">
    <rdf:RDF>
      <cc:Work
         rdf:about="">
        <dc:format>image/svg+xml</dc:format>
        <dc:type
           rdf:resource="http://purl.org/dc/dcmitype/StillImage" />
      </cc:Work>
    </rdf:RDF>
  </metadata>
  <defs
     id="defs874" />
  <sodipodi:namedview
     pagecolor="#ffffff"
     bordercolor="#666666"
     borderopacity="1"
     objecttolerance="10"
     gridtolerance="10"
     guidetolerance="10"
     inkscape:pageopacity="0"
     inkscape:pageshadow="2"
     inkscape:window-width="3072"
     inkscape:window-height="1566"
     id="namedview872"
     showgrid="false"
     inkscape:zoom="82.5625"
     inkscape:cx="8.2180167"
     inkscape:cy="8"
     inkscape:window-x="0"
     inkscape:window-y="88"
     inkscape:window-maximized="1"
     inkscape:current-layer="svg870" />
  <path
     style="line-height:normal;text-indent:0;text-align:start;text-decoration-line:none;text-decoration-style:solid;text-decoration-color:#000;text-transform:none;block-progression:tb;isolation:auto;mix-blend-mode:normal;fill:#ffffff"
     d="M 1 1 L 1 2 L 2 2 L 2 1 L 1 1 z M 11 2 L 11 2.5 L 11 11.042969 L 8.7285156 8.7714844 L 8.0214844 9.4785156 L 11.5 12.957031 L 14.978516 9.4785156 L 14.271484 8.7714844 L 12 11.042969 L 12 2.5 L 12 2 L 11 2 z M 1 3 L 1 4 L 3 4 L 3 3 L 1 3 z M 1 5 L 1 6 L 4 6 L 4 5 L 1 5 z M 1 7 L 1 8 L 5 8 L 5 7 L 1 7 z M 1 9 L 1 10 L 6 10 L 6 9 L 1 9 z M 1 11 L 1 12 L 7 12 L 7 11 L 1 11 z M 1 13 L 1 14 L 8 14 L 8 13 L 1 13 z"
     id="path868" />
</svg>
